<svg xmlns="http://www.w3.org/2000/svg" width="50" height="51" viewBox="0 0 50 51"><defs><mask id="ykvnb" width="2" height="2" x="-1" y="-1"><path fill="#fff" d="M10 0h30v31H10z"/><path d="M10 .875h29.844v30.094H10z"/></mask><filter id="ykvna" width="80" height="91" x="-15" y="-25" filterUnits="userSpaceOnUse"><feOffset dy="10" in="SourceGraphic" result="FeOffset1023Out"/><feGaussianBlur in="FeOffset1023Out" result="FeGaussianBlur1024Out" stdDeviation="6 6"/></filter></defs><g><g><g filter="url(#ykvna)"><path fill="none" d="M10 .875h29.844v30.094H10z" mask="url(&quot;#ykvnb&quot;)"/><path fill="#032b38" fill-opacity=".05" d="M10 .875h29.844v30.094H10z"/></g><path fill="#fff" d="M10 .875h29.844v30.094H10z"/></g><g><path fill="#019ec4" d="M33.688 6.076a15.12 15.12 0 0 0-3.04 1.49h.012c-.696.41-1.278 1.07-1.528 1.813-.341 1.02.114 1.791.895 2.159.3.141.257.124.537.28 2.193 1.219 3.129 3.764 2.143 6.708C31.326 22.655 26.687 26 22.343 26c-6.977 0-7.455-7.674-2.184-13.024 3.726-3.785 8.635-6.501 13.567-7.287v.001h.026c.11 0 .17.088.132.197a.314.314 0 0 1-.196.188"/></g></g></svg>